<svg xmlns="http://www.w3.org/2000/svg" xmlns:xlink="http://www.w3.org/1999/xlink" version="1.1" id="Layer_1" x="0px" y="0px" width="100px" height="100px" viewBox="0 0 100 100" enable-background="new 0 0 100 100" xml:space="preserve">
<path d="M96.562,62.695l-0.311-2.181c-0.3-1.686-0.748-3.259-1.427-4.512c-2.527-4.664-21.781-29.054-27.316-30.636  c-0.926-0.265-3.389-0.879-6.28-0.879c-3.969,0-7.205,1.159-9.361,3.353c-1.945,1.979-3,4.738-3.141,8.214  c-2.732,1.249-9.46,4.648-11.314,8.562c-0.935,1.974-4.817,3.736-7.937,5.154c-2.51,1.14-4.678,2.125-6.004,3.35  c-0.712,0.657-1.678,1.634-2.792,2.762c-3.172,3.21-7.966,8.062-10.814,9.262c-3.224,1.357-5.355,3.561-5.563,5.751  c-0.111,1.173,0.374,2.242,1.299,2.858c1.666,1.11,7.711,1.94,12.003,1.94c0.905,0,1.779-0.034,2.592-0.106  c2.44-0.223,11.275-0.403,19.694-0.403c10.072,0,14.617,0.246,15.45,0.457c1.746,0.442,3.311,0.419,5.603,0.246  c1.5-0.11,3.247-0.239,5.825-0.193c2.647,0.052,5.091,0.155,7.103,0.242c1.79,0.075,3.245,0.138,4.214,0.138  c0.651,0,1.066-0.026,1.351-0.079c0.105-0.013,0.645-0.056,3.195-0.056c4.563,0,11.933,0.135,11.937,0.135  c0.965,0.014,1.668-0.648,1.782-1.544C96.394,74.171,97.126,68.229,96.562,62.695z M46.117,46.308  c3.599-0.917,6.888-0.204,7.346,1.596c0.458,1.797-2.085,4.002-5.683,4.918c-3.599,0.917-6.887,0.204-7.346-1.596  C39.977,49.429,42.521,47.226,46.117,46.308z M28.83,55.225c3.478-0.294,6.408,0.98,6.544,2.85c0.139,1.868-2.568,3.627-6.044,3.921  c-3.478,0.295-6.408-0.98-6.544-2.851C22.649,57.276,25.354,55.521,28.83,55.225z M68.728,71.552  c-0.099,0.214-0.146,0.436-0.153,0.656c-0.569-0.016-1.146-0.03-1.737-0.043c-0.409-0.007-0.797-0.01-1.169-0.01  c-2.137,0-3.719,0.118-4.989,0.213c-1.832,0.139-3.095,0.2-4.474-0.147c-1.843-0.468-9.89-0.565-16.315-0.565  c-8.652,0-17.443,0.183-20.014,0.417c-0.599,0.055-1.252,0.072-1.912,0.079c6.599-2.576,14.378-5.079,16.664-4.546  c1.353,0.322,2.363,0.663,3.255,0.963c2.088,0.705,3.741,1.262,6.725,0.329c0.837-0.262,1.699-0.604,2.57-0.954  c3.061-1.224,5.039-1.884,6.7-0.719c3.797,2.659,6.9,2.202,9.901,1.768l0.234-0.032c2.237-0.328,4.478-0.024,4.998,0.672  C69.246,69.945,69.143,70.646,68.728,71.552z M63.599,61.02c-4.466,0.331-8.229-1.068-8.409-3.131  c-0.181-2.062,3.292-4.004,7.756-4.336c4.464-0.335,8.23,1.068,8.41,3.13C71.536,58.743,68.063,60.688,63.599,61.02z M77.548,58.425  c-0.728-2.467-1.829-4.981-3.479-6.277c-4.092-3.216-9.187-7.505-11.213-9.899c-0.269-0.317-5.652-6.588-10.517-7.036  c0.231-2.092,0.908-3.74,2.046-4.897c1.866-1.898,4.752-2.297,6.844-2.297c2.447,0,4.527,0.52,5.309,0.742  c3.187,0.91,17.306,17.467,23.131,25.74c-1.961-0.796-4.229-1.003-6.721-0.068C80.421,55.379,78.722,56.739,77.548,58.425z   M93.012,72.517c-2.44-0.038-7.121-0.106-10.382-0.106c-2.964,0-3.498,0.054-3.79,0.106c-0.136,0.021-0.346,0.031-0.608,0.035  c0.013-0.229,0.026-0.475,0.036-0.7c0.409-8.403,0.806-12.198,5.92-14.114c4.326-1.626,7.479,2.22,8.7,4.07  C93.412,65.382,93.255,69.749,93.012,72.517z"/>
</svg>