<?xml version="1.0" encoding="utf-8"?>
<!-- Generator: Adobe Illustrator 15.1.0, SVG Export Plug-In . SVG Version: 6.00 Build 0)  -->
<!DOCTYPE svg PUBLIC "-//W3C//DTD SVG 1.1//EN" "http://www.w3.org/Graphics/SVG/1.1/DTD/svg11.dtd">
<svg version="1.1" id="Layer_1" xmlns="http://www.w3.org/2000/svg" xmlns:xlink="http://www.w3.org/1999/xlink" x="0px" y="0px"
	 width="83.5px" height="100px" viewBox="0 0 83.5 100" enable-background="new 0 0 83.5 100" xml:space="preserve">
<path d="M71.688,36.5H62v-5.667v-6.886c0,0,0,0,0-0.001c0.412-0.88,0.702-1.828,0.856-2.82c0.005-0.03,0.013-0.058,0.018-0.087
	c0.05-0.341,0.084-0.688,0.101-1.038C62.982,19.833,63,19.669,63,19.5C63,13.701,58.299,9,52.5,9c-2.584,0-4.947,0.938-6.775,2.486
	C44.873,11.177,43.958,11,43,11c-1.518,0-2.93,0.43-4.139,1.163C36.916,10.804,34.553,10,32,10c-2.621,0-5.037,0.85-7.012,2.275
	C24.867,5.477,19.328,0,12.5,0C5.597,0,0,5.597,0,12.5c0,5.123,3.089,9.51,7.5,11.439V89.5c0,5.799,4.701,10.5,10.5,10.5h33.5
	c5.799,0,10.5-4.701,10.5-10.5v-5h9.688c2.501,0,7.094-1.191,9.754-9.171c1.327-3.983,2.059-9.25,2.059-14.829
	C83.5,48.897,80.396,36.5,71.688,36.5z M21,84h-4V36h4V84z M31,84h-4V36h4V84z M41,84h-4V36h4V84z M51,84h-4V36h4V84z M58.98,20
	c-0.195,3.414-3.018,6.125-6.48,6.125c-1.494,0-2.867-0.51-3.965-1.357c-1.105-0.854-1.926-2.053-2.302-3.439
	c-0.548,0.753-1.345,1.313-2.277,1.544C43.648,22.948,43.331,23,43,23c-1.213,0-2.287-0.552-3.021-1.404
	C39.986,21.73,40,21.863,40,22c0,1.42-0.373,2.751-1.022,3.907C37.607,28.349,34.998,30,32,30c-2.404,0-4.555-1.065-6.021-2.744
	c-0.926-1.06-1.576-2.362-1.84-3.803C23.406,24.388,22.279,25,21,25c-0.213,0-0.418-0.03-0.623-0.062
	c-0.917-0.145-1.725-0.596-2.322-1.252C17.406,22.975,17,22.038,17,21c0-0.349,0.062-0.679,0.146-1
	c0.043-0.162,0.082-0.326,0.145-0.48c-0.261,0.178-0.536,0.332-0.816,0.48c-1.048,0.555-2.223,0.901-3.473,0.975
	C12.834,20.984,12.67,21,12.5,21c-1.249,0-2.432-0.276-3.5-0.761c-2.946-1.335-5-4.295-5-7.739C4,7.807,7.806,4,12.5,4
	S21,7.807,21,12.5c0,0.169-0.016,0.334-0.025,0.501c-0.093,1.585-0.611,3.056-1.455,4.29C19.979,17.107,20.476,17,21,17
	c0.033,0,0.064,0.009,0.098,0.01c0.998,0.024,1.9,0.417,2.588,1.044c0.344,0.314,0.627,0.687,0.844,1.103
	c0.516-1.352,1.381-2.526,2.492-3.412C28.389,14.655,30.116,14,32,14c1.469,0,2.84,0.402,4.023,1.093
	c1.289,0.753,2.351,1.852,3.051,3.176c0.274-1.483,1.369-2.664,2.795-3.087C42.23,15.075,42.604,15,43,15
	c0.008,0,0.016,0.002,0.023,0.002c1.512,0.009,2.809,0.864,3.481,2.108c0.55-1.311,1.521-2.397,2.739-3.104
	c0.958-0.557,2.068-0.881,3.256-0.881c3.59,0,6.5,2.91,6.5,6.5C59,19.752,58.988,19.875,58.98,20z M71.39,75.5H62v-30h9.39
	c1.127,1.049,3.11,6.321,3.11,15S72.517,74.45,71.39,75.5z"/>
</svg>
