<svg xmlns="http://www.w3.org/2000/svg" xmlns:xlink="http://www.w3.org/1999/xlink" version="1.1" baseProfile="basic" id="Layer_1" x="0px" y="0px" width="100px" height="100px" viewBox="0 0 100 100" xml:space="preserve">
<g>
	<path d="M97.036,6.342H2.967C1.324,6.342,0,7.618,0,9.205v56.35c0,1.578,1.323,2.858,2.967,2.858h94.069   c1.642,0,2.964-1.28,2.964-2.858V9.205C100,7.618,98.678,6.342,97.036,6.342z M93.104,61.516H6.897V13.239h86.207V61.516z"/>
	<rect x="51.725" y="47.723" width="20.689" height="3.447"/>
	<rect x="51.725" y="40.826" width="31.035" height="3.449"/>
	<rect x="51.725" y="20.135" width="31.035" height="6.897"/>
	<rect x="51.725" y="33.929" width="31.035" height="3.448"/>
	<path d="M27.587,47.723c7.617,0,13.792-6.176,13.792-13.793c0-7.618-6.175-13.794-13.792-13.794s-13.793,6.176-13.793,13.794   C13.793,41.546,19.97,47.723,27.587,47.723z M28.587,34.929h11.754c-0.486,6.258-5.496,11.268-11.754,11.754V34.929z"/>
	<polygon points="44.379,71.861 27.139,96 34.035,96 48.277,76.062 48.277,96 55.173,96 55.173,76.062 69.414,96 76.311,96    59.07,71.861  "/>
</g>
</svg>